<svg xmlns="http://www.w3.org/2000/svg" width="8.5000in" height="11.0000in" viewBox="0 0 612.000 792.000">
<g id="cut">
<circle cx="156.331" cy="68.126" r="15.591" fill="none" stroke="#00AEEF" stroke-width="0.5"/>
<circle cx="193.748" cy="68.126" r="15.591" fill="none" stroke="#00AEEF" stroke-width="0.5"/>
<circle cx="231.165" cy="68.126" r="15.591" fill="none" stroke="#00AEEF" stroke-width="0.5"/>
<circle cx="268.583" cy="68.126" r="15.591" fill="none" stroke="#00AEEF" stroke-width="0.5"/>
<circle cx="306.000" cy="68.126" r="15.591" fill="none" stroke="#00AEEF" stroke-width="0.5"/>
<circle cx="343.417" cy="68.126" r="15.591" fill="none" stroke="#00AEEF" stroke-width="0.5"/>
<circle cx="380.835" cy="68.126" r="15.591" fill="none" stroke="#00AEEF" stroke-width="0.5"/>
<circle cx="418.252" cy="68.126" r="15.591" fill="none" stroke="#00AEEF" stroke-width="0.5"/>
<circle cx="455.669" cy="68.126" r="15.591" fill="none" stroke="#00AEEF" stroke-width="0.5"/>
<circle cx="156.331" cy="105.543" r="15.591" fill="none" stroke="#00AEEF" stroke-width="0.5"/>
<circle cx="193.748" cy="105.543" r="15.591" fill="none" stroke="#00AEEF" stroke-width="0.5"/>
<circle cx="231.165" cy="105.543" r="15.591" fill="none" stroke="#00AEEF" stroke-width="0.5"/>
<circle cx="268.583" cy="105.543" r="15.591" fill="none" stroke="#00AEEF" stroke-width="0.5"/>
<circle cx="306.000" cy="105.543" r="15.591" fill="none" stroke="#00AEEF" stroke-width="0.5"/>
<circle cx="343.417" cy="105.543" r="15.591" fill="none" stroke="#00AEEF" stroke-width="0.5"/>
<circle cx="380.835" cy="105.543" r="15.591" fill="none" stroke="#00AEEF" stroke-width="0.5"/>
<circle cx="418.252" cy="105.543" r="15.591" fill="none" stroke="#00AEEF" stroke-width="0.5"/>
<circle cx="455.669" cy="105.543" r="15.591" fill="none" stroke="#00AEEF" stroke-width="0.5"/>
<circle cx="81.496" cy="142.961" r="15.591" fill="none" stroke="#00AEEF" stroke-width="0.5"/>
<circle cx="118.913" cy="142.961" r="15.591" fill="none" stroke="#00AEEF" stroke-width="0.5"/>
<circle cx="156.331" cy="142.961" r="15.591" fill="none" stroke="#00AEEF" stroke-width="0.5"/>
<circle cx="193.748" cy="142.961" r="15.591" fill="none" stroke="#00AEEF" stroke-width="0.5"/>
<circle cx="231.165" cy="142.961" r="15.591" fill="none" stroke="#00AEEF" stroke-width="0.5"/>
<circle cx="268.583" cy="142.961" r="15.591" fill="none" stroke="#00AEEF" stroke-width="0.5"/>
<circle cx="306.000" cy="142.961" r="15.591" fill="none" stroke="#00AEEF" stroke-width="0.5"/>
<circle cx="343.417" cy="142.961" r="15.591" fill="none" stroke="#00AEEF" stroke-width="0.5"/>
<circle cx="380.835" cy="142.961" r="15.591" fill="none" stroke="#00AEEF" stroke-width="0.5"/>
<circle cx="418.252" cy="142.961" r="15.591" fill="none" stroke="#00AEEF" stroke-width="0.5"/>
<circle cx="455.669" cy="142.961" r="15.591" fill="none" stroke="#00AEEF" stroke-width="0.5"/>
<circle cx="493.087" cy="142.961" r="15.591" fill="none" stroke="#00AEEF" stroke-width="0.5"/>
<circle cx="530.504" cy="142.961" r="15.591" fill="none" stroke="#00AEEF" stroke-width="0.5"/>
<circle cx="81.496" cy="180.378" r="15.591" fill="none" stroke="#00AEEF" stroke-width="0.5"/>
<circle cx="118.913" cy="180.378" r="15.591" fill="none" stroke="#00AEEF" stroke-width="0.5"/>
<circle cx="156.331" cy="180.378" r="15.591" fill="none" stroke="#00AEEF" stroke-width="0.5"/>
<circle cx="193.748" cy="180.378" r="15.591" fill="none" stroke="#00AEEF" stroke-width="0.5"/>
<circle cx="231.165" cy="180.378" r="15.591" fill="none" stroke="#00AEEF" stroke-width="0.5"/>
<circle cx="268.583" cy="180.378" r="15.591" fill="none" stroke="#00AEEF" stroke-width="0.5"/>
<circle cx="306.000" cy="180.378" r="15.591" fill="none" stroke="#00AEEF" stroke-width="0.5"/>
<circle cx="343.417" cy="180.378" r="15.591" fill="none" stroke="#00AEEF" stroke-width="0.5"/>
<circle cx="380.835" cy="180.378" r="15.591" fill="none" stroke="#00AEEF" stroke-width="0.5"/>
<circle cx="418.252" cy="180.378" r="15.591" fill="none" stroke="#00AEEF" stroke-width="0.5"/>
<circle cx="455.669" cy="180.378" r="15.591" fill="none" stroke="#00AEEF" stroke-width="0.5"/>
<circle cx="493.087" cy="180.378" r="15.591" fill="none" stroke="#00AEEF" stroke-width="0.5"/>
<circle cx="530.504" cy="180.378" r="15.591" fill="none" stroke="#00AEEF" stroke-width="0.5"/>
<circle cx="81.496" cy="217.795" r="15.591" fill="none" stroke="#00AEEF" stroke-width="0.5"/>
<circle cx="118.913" cy="217.795" r="15.591" fill="none" stroke="#00AEEF" stroke-width="0.5"/>
<circle cx="156.331" cy="217.795" r="15.591" fill="none" stroke="#00AEEF" stroke-width="0.5"/>
<circle cx="193.748" cy="217.795" r="15.591" fill="none" stroke="#00AEEF" stroke-width="0.5"/>
<circle cx="231.165" cy="217.795" r="15.591" fill="none" stroke="#00AEEF" stroke-width="0.5"/>
<circle cx="268.583" cy="217.795" r="15.591" fill="none" stroke="#00AEEF" stroke-width="0.5"/>
<circle cx="306.000" cy="217.795" r="15.591" fill="none" stroke="#00AEEF" stroke-width="0.5"/>
<circle cx="343.417" cy="217.795" r="15.591" fill="none" stroke="#00AEEF" stroke-width="0.5"/>
<circle cx="380.835" cy="217.795" r="15.591" fill="none" stroke="#00AEEF" stroke-width="0.5"/>
<circle cx="418.252" cy="217.795" r="15.591" fill="none" stroke="#00AEEF" stroke-width="0.5"/>
<circle cx="455.669" cy="217.795" r="15.591" fill="none" stroke="#00AEEF" stroke-width="0.5"/>
<circle cx="493.087" cy="217.795" r="15.591" fill="none" stroke="#00AEEF" stroke-width="0.5"/>
<circle cx="530.504" cy="217.795" r="15.591" fill="none" stroke="#00AEEF" stroke-width="0.5"/>
<circle cx="81.496" cy="255.213" r="15.591" fill="none" stroke="#00AEEF" stroke-width="0.5"/>
<circle cx="118.913" cy="255.213" r="15.591" fill="none" stroke="#00AEEF" stroke-width="0.5"/>
<circle cx="156.331" cy="255.213" r="15.591" fill="none" stroke="#00AEEF" stroke-width="0.5"/>
<circle cx="193.748" cy="255.213" r="15.591" fill="none" stroke="#00AEEF" stroke-width="0.5"/>
<circle cx="231.165" cy="255.213" r="15.591" fill="none" stroke="#00AEEF" stroke-width="0.5"/>
<circle cx="268.583" cy="255.213" r="15.591" fill="none" stroke="#00AEEF" stroke-width="0.5"/>
<circle cx="306.000" cy="255.213" r="15.591" fill="none" stroke="#00AEEF" stroke-width="0.5"/>
<circle cx="343.417" cy="255.213" r="15.591" fill="none" stroke="#00AEEF" stroke-width="0.5"/>
<circle cx="380.835" cy="255.213" r="15.591" fill="none" stroke="#00AEEF" stroke-width="0.5"/>
<circle cx="418.252" cy="255.213" r="15.591" fill="none" stroke="#00AEEF" stroke-width="0.5"/>
<circle cx="455.669" cy="255.213" r="15.591" fill="none" stroke="#00AEEF" stroke-width="0.5"/>
<circle cx="493.087" cy="255.213" r="15.591" fill="none" stroke="#00AEEF" stroke-width="0.5"/>
<circle cx="530.504" cy="255.213" r="15.591" fill="none" stroke="#00AEEF" stroke-width="0.5"/>
<circle cx="81.496" cy="292.630" r="15.591" fill="none" stroke="#00AEEF" stroke-width="0.5"/>
<circle cx="118.913" cy="292.630" r="15.591" fill="none" stroke="#00AEEF" stroke-width="0.5"/>
<circle cx="156.331" cy="292.630" r="15.591" fill="none" stroke="#00AEEF" stroke-width="0.5"/>
<circle cx="193.748" cy="292.630" r="15.591" fill="none" stroke="#00AEEF" stroke-width="0.5"/>
<circle cx="231.165" cy="292.630" r="15.591" fill="none" stroke="#00AEEF" stroke-width="0.5"/>
<circle cx="268.583" cy="292.630" r="15.591" fill="none" stroke="#00AEEF" stroke-width="0.5"/>
<circle cx="306.000" cy="292.630" r="15.591" fill="none" stroke="#00AEEF" stroke-width="0.5"/>
<circle cx="343.417" cy="292.630" r="15.591" fill="none" stroke="#00AEEF" stroke-width="0.5"/>
<circle cx="380.835" cy="292.630" r="15.591" fill="none" stroke="#00AEEF" stroke-width="0.5"/>
<circle cx="418.252" cy="292.630" r="15.591" fill="none" stroke="#00AEEF" stroke-width="0.5"/>
<circle cx="455.669" cy="292.630" r="15.591" fill="none" stroke="#00AEEF" stroke-width="0.5"/>
<circle cx="493.087" cy="292.630" r="15.591" fill="none" stroke="#00AEEF" stroke-width="0.5"/>
<circle cx="530.504" cy="292.630" r="15.591" fill="none" stroke="#00AEEF" stroke-width="0.5"/>
<circle cx="81.496" cy="330.047" r="15.591" fill="none" stroke="#00AEEF" stroke-width="0.5"/>
<circle cx="118.913" cy="330.047" r="15.591" fill="none" stroke="#00AEEF" stroke-width="0.5"/>
<circle cx="156.331" cy="330.047" r="15.591" fill="none" stroke="#00AEEF" stroke-width="0.5"/>
<circle cx="193.748" cy="330.047" r="15.591" fill="none" stroke="#00AEEF" stroke-width="0.5"/>
<circle cx="231.165" cy="330.047" r="15.591" fill="none" stroke="#00AEEF" stroke-width="0.5"/>
<circle cx="268.583" cy="330.047" r="15.591" fill="none" stroke="#00AEEF" stroke-width="0.5"/>
<circle cx="306.000" cy="330.047" r="15.591" fill="none" stroke="#00AEEF" stroke-width="0.5"/>
<circle cx="343.417" cy="330.047" r="15.591" fill="none" stroke="#00AEEF" stroke-width="0.5"/>
<circle cx="67.890" cy="367.465" r="12.756" fill="none" stroke="#00AEEF" stroke-width="0.5"/>
<circle cx="99.638" cy="367.465" r="12.756" fill="none" stroke="#00AEEF" stroke-width="0.5"/>
<circle cx="131.386" cy="367.465" r="12.756" fill="none" stroke="#00AEEF" stroke-width="0.5"/>
<circle cx="163.134" cy="367.465" r="12.756" fill="none" stroke="#00AEEF" stroke-width="0.5"/>
<circle cx="194.882" cy="367.465" r="12.756" fill="none" stroke="#00AEEF" stroke-width="0.5"/>
<circle cx="226.630" cy="367.465" r="12.756" fill="none" stroke="#00AEEF" stroke-width="0.5"/>
<circle cx="258.378" cy="367.465" r="12.756" fill="none" stroke="#00AEEF" stroke-width="0.5"/>
<circle cx="290.126" cy="367.465" r="12.756" fill="none" stroke="#00AEEF" stroke-width="0.5"/>
<circle cx="321.874" cy="367.465" r="12.756" fill="none" stroke="#00AEEF" stroke-width="0.5"/>
<circle cx="353.622" cy="367.465" r="12.756" fill="none" stroke="#00AEEF" stroke-width="0.5"/>
<circle cx="385.370" cy="367.465" r="12.756" fill="none" stroke="#00AEEF" stroke-width="0.5"/>
<circle cx="417.118" cy="367.465" r="12.756" fill="none" stroke="#00AEEF" stroke-width="0.5"/>
<circle cx="448.866" cy="367.465" r="12.756" fill="none" stroke="#00AEEF" stroke-width="0.5"/>
<circle cx="480.614" cy="367.465" r="12.756" fill="none" stroke="#00AEEF" stroke-width="0.5"/>
<circle cx="512.362" cy="367.465" r="12.756" fill="none" stroke="#00AEEF" stroke-width="0.5"/>
<circle cx="544.110" cy="367.465" r="12.756" fill="none" stroke="#00AEEF" stroke-width="0.5"/>
<circle cx="67.890" cy="399.213" r="12.756" fill="none" stroke="#00AEEF" stroke-width="0.5"/>
<circle cx="99.638" cy="399.213" r="12.756" fill="none" stroke="#00AEEF" stroke-width="0.5"/>
<circle cx="131.386" cy="399.213" r="12.756" fill="none" stroke="#00AEEF" stroke-width="0.5"/>
<circle cx="163.134" cy="399.213" r="12.756" fill="none" stroke="#00AEEF" stroke-width="0.5"/>
<circle cx="194.882" cy="399.213" r="12.756" fill="none" stroke="#00AEEF" stroke-width="0.5"/>
<circle cx="226.630" cy="399.213" r="12.756" fill="none" stroke="#00AEEF" stroke-width="0.5"/>
<circle cx="258.378" cy="399.213" r="12.756" fill="none" stroke="#00AEEF" stroke-width="0.5"/>
<circle cx="290.126" cy="399.213" r="12.756" fill="none" stroke="#00AEEF" stroke-width="0.5"/>
<circle cx="321.874" cy="399.213" r="12.756" fill="none" stroke="#00AEEF" stroke-width="0.5"/>
<circle cx="353.622" cy="399.213" r="12.756" fill="none" stroke="#00AEEF" stroke-width="0.5"/>
<circle cx="385.370" cy="399.213" r="12.756" fill="none" stroke="#00AEEF" stroke-width="0.5"/>
<circle cx="417.118" cy="399.213" r="12.756" fill="none" stroke="#00AEEF" stroke-width="0.5"/>
<circle cx="448.866" cy="399.213" r="12.756" fill="none" stroke="#00AEEF" stroke-width="0.5"/>
<circle cx="480.614" cy="399.213" r="12.756" fill="none" stroke="#00AEEF" stroke-width="0.5"/>
<circle cx="512.362" cy="399.213" r="12.756" fill="none" stroke="#00AEEF" stroke-width="0.5"/>
<circle cx="544.110" cy="399.213" r="12.756" fill="none" stroke="#00AEEF" stroke-width="0.5"/>
<circle cx="67.890" cy="430.961" r="12.756" fill="none" stroke="#00AEEF" stroke-width="0.5"/>
<circle cx="99.638" cy="430.961" r="12.756" fill="none" stroke="#00AEEF" stroke-width="0.5"/>
<circle cx="131.386" cy="430.961" r="12.756" fill="none" stroke="#00AEEF" stroke-width="0.5"/>
<circle cx="163.134" cy="430.961" r="12.756" fill="none" stroke="#00AEEF" stroke-width="0.5"/>
<circle cx="194.882" cy="430.961" r="12.756" fill="none" stroke="#00AEEF" stroke-width="0.5"/>
<circle cx="226.630" cy="430.961" r="12.756" fill="none" stroke="#00AEEF" stroke-width="0.5"/>
<circle cx="258.378" cy="430.961" r="12.756" fill="none" stroke="#00AEEF" stroke-width="0.5"/>
<circle cx="290.126" cy="430.961" r="12.756" fill="none" stroke="#00AEEF" stroke-width="0.5"/>
<circle cx="321.874" cy="430.961" r="12.756" fill="none" stroke="#00AEEF" stroke-width="0.5"/>
<circle cx="353.622" cy="430.961" r="12.756" fill="none" stroke="#00AEEF" stroke-width="0.5"/>
<circle cx="385.370" cy="430.961" r="12.756" fill="none" stroke="#00AEEF" stroke-width="0.5"/>
<circle cx="417.118" cy="430.961" r="12.756" fill="none" stroke="#00AEEF" stroke-width="0.5"/>
<circle cx="448.866" cy="430.961" r="12.756" fill="none" stroke="#00AEEF" stroke-width="0.5"/>
<circle cx="480.614" cy="430.961" r="12.756" fill="none" stroke="#00AEEF" stroke-width="0.5"/>
<circle cx="512.362" cy="430.961" r="12.756" fill="none" stroke="#00AEEF" stroke-width="0.5"/>
<circle cx="544.110" cy="430.961" r="12.756" fill="none" stroke="#00AEEF" stroke-width="0.5"/>
<circle cx="67.890" cy="462.709" r="12.756" fill="none" stroke="#00AEEF" stroke-width="0.5"/>
<circle cx="99.638" cy="462.709" r="12.756" fill="none" stroke="#00AEEF" stroke-width="0.5"/>
<circle cx="131.386" cy="462.709" r="12.756" fill="none" stroke="#00AEEF" stroke-width="0.5"/>
<circle cx="163.134" cy="462.709" r="12.756" fill="none" stroke="#00AEEF" stroke-width="0.5"/>
<circle cx="194.882" cy="462.709" r="12.756" fill="none" stroke="#00AEEF" stroke-width="0.5"/>
<circle cx="226.630" cy="462.709" r="12.756" fill="none" stroke="#00AEEF" stroke-width="0.5"/>
<circle cx="258.378" cy="462.709" r="12.756" fill="none" stroke="#00AEEF" stroke-width="0.5"/>
<circle cx="290.126" cy="462.709" r="12.756" fill="none" stroke="#00AEEF" stroke-width="0.5"/>
<circle cx="321.874" cy="462.709" r="12.756" fill="none" stroke="#00AEEF" stroke-width="0.5"/>
<circle cx="353.622" cy="462.709" r="12.756" fill="none" stroke="#00AEEF" stroke-width="0.5"/>
<circle cx="385.370" cy="462.709" r="12.756" fill="none" stroke="#00AEEF" stroke-width="0.5"/>
<circle cx="417.118" cy="462.709" r="12.756" fill="none" stroke="#00AEEF" stroke-width="0.5"/>
<circle cx="448.866" cy="462.709" r="12.756" fill="none" stroke="#00AEEF" stroke-width="0.5"/>
<circle cx="480.614" cy="462.709" r="12.756" fill="none" stroke="#00AEEF" stroke-width="0.5"/>
<circle cx="512.362" cy="462.709" r="12.756" fill="none" stroke="#00AEEF" stroke-width="0.5"/>
<circle cx="544.110" cy="462.709" r="12.756" fill="none" stroke="#00AEEF" stroke-width="0.5"/>
<circle cx="67.890" cy="494.457" r="12.756" fill="none" stroke="#00AEEF" stroke-width="0.5"/>
<circle cx="99.638" cy="494.457" r="12.756" fill="none" stroke="#00AEEF" stroke-width="0.5"/>
<circle cx="131.386" cy="494.457" r="12.756" fill="none" stroke="#00AEEF" stroke-width="0.5"/>
<circle cx="163.134" cy="494.457" r="12.756" fill="none" stroke="#00AEEF" stroke-width="0.5"/>
<circle cx="194.882" cy="494.457" r="12.756" fill="none" stroke="#00AEEF" stroke-width="0.5"/>
<circle cx="226.630" cy="494.457" r="12.756" fill="none" stroke="#00AEEF" stroke-width="0.5"/>
<circle cx="258.378" cy="494.457" r="12.756" fill="none" stroke="#00AEEF" stroke-width="0.5"/>
<circle cx="290.126" cy="494.457" r="12.756" fill="none" stroke="#00AEEF" stroke-width="0.5"/>
<circle cx="321.874" cy="494.457" r="12.756" fill="none" stroke="#00AEEF" stroke-width="0.5"/>
<circle cx="353.622" cy="494.457" r="12.756" fill="none" stroke="#00AEEF" stroke-width="0.5"/>
<circle cx="385.370" cy="494.457" r="12.756" fill="none" stroke="#00AEEF" stroke-width="0.5"/>
<circle cx="417.118" cy="494.457" r="12.756" fill="none" stroke="#00AEEF" stroke-width="0.5"/>
<circle cx="448.866" cy="494.457" r="12.756" fill="none" stroke="#00AEEF" stroke-width="0.5"/>
<circle cx="480.614" cy="494.457" r="12.756" fill="none" stroke="#00AEEF" stroke-width="0.5"/>
<circle cx="512.362" cy="494.457" r="12.756" fill="none" stroke="#00AEEF" stroke-width="0.5"/>
<circle cx="544.110" cy="494.457" r="12.756" fill="none" stroke="#00AEEF" stroke-width="0.5"/>
<circle cx="67.890" cy="526.205" r="12.756" fill="none" stroke="#00AEEF" stroke-width="0.5"/>
<circle cx="99.638" cy="526.205" r="12.756" fill="none" stroke="#00AEEF" stroke-width="0.5"/>
<circle cx="131.386" cy="526.205" r="12.756" fill="none" stroke="#00AEEF" stroke-width="0.5"/>
<circle cx="163.134" cy="526.205" r="12.756" fill="none" stroke="#00AEEF" stroke-width="0.5"/>
<circle cx="194.882" cy="526.205" r="12.756" fill="none" stroke="#00AEEF" stroke-width="0.5"/>
<circle cx="226.630" cy="526.205" r="12.756" fill="none" stroke="#00AEEF" stroke-width="0.5"/>
<circle cx="258.378" cy="526.205" r="12.756" fill="none" stroke="#00AEEF" stroke-width="0.5"/>
<circle cx="290.126" cy="526.205" r="12.756" fill="none" stroke="#00AEEF" stroke-width="0.5"/>
<circle cx="321.874" cy="526.205" r="12.756" fill="none" stroke="#00AEEF" stroke-width="0.5"/>
<circle cx="353.622" cy="526.205" r="12.756" fill="none" stroke="#00AEEF" stroke-width="0.5"/>
<circle cx="385.370" cy="526.205" r="12.756" fill="none" stroke="#00AEEF" stroke-width="0.5"/>
<circle cx="417.118" cy="526.205" r="12.756" fill="none" stroke="#00AEEF" stroke-width="0.5"/>
</g>
</svg>
