# 18Dragon TTS tile — regular flat-top hexagonal prism (generated)
v -0.5 0.01 0
v -0.25 0.01 0.4330127018922193
v 0.25 0.01 0.4330127018922193
v 0.5 0.01 0
v 0.25 0.01 -0.4330127018922193
v -0.25 0.01 -0.4330127018922193
v -0.5 -0.01 0
v -0.25 -0.01 0.4330127018922193
v 0.25 -0.01 0.4330127018922193
v 0.5 -0.01 0
v 0.25 -0.01 -0.4330127018922193
v -0.25 -0.01 -0.4330127018922193
vt 0.9287109375 0.5
vt 0.71435546875 0.8712745627552427
vt 0.28564453125 0.8712745627552427
vt 0.0712890625 0.5
vt 0.28564453125 0.12872543724475727
vt 0.71435546875 0.12872543724475727
vt 0.5 0.5
vn 0 1 0
vn 0 -1 0
vn -0.86603 0 0.50000
vn 0.00000 0 1.00000
vn 0.86603 0 0.50000
vn 0.86603 0 -0.50000
vn 0.00000 0 -1.00000
vn -0.86603 0 -0.50000
f 1/1/1 2/2/1 3/3/1
f 1/1/1 3/3/1 4/4/1
f 1/1/1 4/4/1 5/5/1
f 1/1/1 5/5/1 6/6/1
f 7/7/2 9/7/2 8/7/2
f 7/7/2 10/7/2 9/7/2
f 7/7/2 11/7/2 10/7/2
f 7/7/2 12/7/2 11/7/2
f 1/7/3 8/7/3 2/7/3
f 1/7/3 7/7/3 8/7/3
f 2/7/4 9/7/4 3/7/4
f 2/7/4 8/7/4 9/7/4
f 3/7/5 10/7/5 4/7/5
f 3/7/5 9/7/5 10/7/5
f 4/7/6 11/7/6 5/7/6
f 4/7/6 10/7/6 11/7/6
f 5/7/7 12/7/7 6/7/7
f 5/7/7 11/7/7 12/7/7
f 6/7/8 7/7/8 1/7/8
f 6/7/8 12/7/8 7/7/8
